<?xml version="1.0" encoding="UTF-8"?>
<!-- Generator: visioncortex VTracer 0.6.4 -->
<svg version="1.1" xmlns="http://www.w3.org/2000/svg" width="220" height="220">
<path d="M0 0 C11.22 0 22.44 0 34 0 C34 4.62 34 9.24 34 14 C31.69 14.33 29.38 14.66 27 15 C27 17.31 27 19.62 27 22 C28.171758 22.242344 29.343516 22.484687 30.550781 22.734375 C39.291639 24.584154 47.713936 26.568766 56 30 C56.33 27.69 56.66 25.38 57 23 C56.01 22.34 55.02 21.68 54 21 C54.75 16.25 54.75 16.25 57 14 C61.481872 14.310467 64.942141 16.412301 68.8125 18.5625 C69.40998 18.891855 70.007461 19.221211 70.623047 19.560547 C72.08534 20.367733 73.54314 21.183049 75 22 C74.125 26.75 74.125 26.75 73 29 C70.69 28.67 68.38 28.34 66 28 C65.34 30.31 64.68 32.62 64 35 C65.08668 35.779238 65.08668 35.779238 66.195312 36.574219 C83.973509 49.398225 95.790346 64.223089 103 85 C103.342891 85.968086 103.685781 86.936172 104.039062 87.933594 C110.295552 109.480477 106.583246 134.538021 96 154 C91.564306 161.901081 86.238515 168.456892 80 175 C79.483086 175.603281 78.966172 176.206562 78.433594 176.828125 C65.859821 190.879234 44.082409 199.549815 25.593018 200.634521 C0.199473 201.738792 -23.328971 195.968051 -42.4375 178.5 C-44.327585 176.697941 -46.163496 174.858205 -48 173 C-48.738633 172.27168 -49.477266 171.543359 -50.238281 170.792969 C-67.287288 152.949445 -72.730138 128.945645 -72.304688 105.019531 C-71.385423 80.818561 -59.312893 60.210206 -42.085938 43.714844 C-37.822448 39.822269 -33.027536 36.81067 -28 34 C-28.33 32.35 -28.66 30.7 -29 29 C-31.97 29.495 -31.97 29.495 -35 30 C-38.051071 25.606458 -38.051071 25.606458 -37.828369 22.961914 C-36.74034 20.385021 -35.712861 19.983494 -33.183594 18.859375 C-32.419824 18.511328 -31.656055 18.163281 -30.869141 17.804688 C-30.066699 17.456641 -29.264258 17.108594 -28.4375 16.75 C-27.631191 16.386484 -26.824883 16.022969 -25.994141 15.648438 C-24.001566 14.752368 -22.003908 13.870356 -20 13 C-16.976562 17.71875 -16.976562 17.71875 -17.1875 20.25 C-18 22 -18 22 -20 23 C-19.505 25.97 -19.505 25.97 -19 29 C-17.975195 28.650664 -16.950391 28.301328 -15.894531 27.941406 C-14.533909 27.48161 -13.173228 27.021983 -11.8125 26.5625 C-10.802197 26.217354 -10.802197 26.217354 -9.771484 25.865234 C-3.591417 23.785114 1.477442 22.872107 8 23 C8 20.03 8 17.06 8 14 C5.36 14 2.72 14 0 14 C0 9.38 0 4.76 0 0 Z " fill="#FCFDFD" transform="translate(92,9)"/>
<path d="M0 0 C11.22 0 22.44 0 34 0 C34 4.62 34 9.24 34 14 C31.69 14.33 29.38 14.66 27 15 C27 17.31 27 19.62 27 22 C28.171758 22.242344 29.343516 22.484687 30.550781 22.734375 C39.291639 24.584154 47.713936 26.568766 56 30 C56.33 27.69 56.66 25.38 57 23 C56.01 22.34 55.02 21.68 54 21 C54.75 16.25 54.75 16.25 57 14 C61.481872 14.310467 64.942141 16.412301 68.8125 18.5625 C69.40998 18.891855 70.007461 19.221211 70.623047 19.560547 C72.08534 20.367733 73.54314 21.183049 75 22 C74.125 26.75 74.125 26.75 73 29 C70.69 28.67 68.38 28.34 66 28 C65.34 30.31 64.68 32.62 64 35 C65.08668 35.779238 65.08668 35.779238 66.195312 36.574219 C83.973509 49.398225 95.790346 64.223089 103 85 C103.342891 85.968086 103.685781 86.936172 104.039062 87.933594 C110.295552 109.480477 106.583246 134.538021 96 154 C91.564306 161.901081 86.238515 168.456892 80 175 C79.483086 175.603281 78.966172 176.206562 78.433594 176.828125 C65.859821 190.879234 44.082409 199.549815 25.593018 200.634521 C0.199473 201.738792 -23.328971 195.968051 -42.4375 178.5 C-44.327585 176.697941 -46.163496 174.858205 -48 173 C-48.738633 172.27168 -49.477266 171.543359 -50.238281 170.792969 C-67.287288 152.949445 -72.730138 128.945645 -72.304688 105.019531 C-71.385423 80.818561 -59.312893 60.210206 -42.085938 43.714844 C-37.822448 39.822269 -33.027536 36.81067 -28 34 C-28.33 32.35 -28.66 30.7 -29 29 C-31.97 29.495 -31.97 29.495 -35 30 C-38.051071 25.606458 -38.051071 25.606458 -37.828369 22.961914 C-36.74034 20.385021 -35.712861 19.983494 -33.183594 18.859375 C-32.419824 18.511328 -31.656055 18.163281 -30.869141 17.804688 C-30.066699 17.456641 -29.264258 17.108594 -28.4375 16.75 C-27.631191 16.386484 -26.824883 16.022969 -25.994141 15.648438 C-24.001566 14.752368 -22.003908 13.870356 -20 13 C-16.976562 17.71875 -16.976562 17.71875 -17.1875 20.25 C-18 22 -18 22 -20 23 C-19.505 25.97 -19.505 25.97 -19 29 C-17.975195 28.650664 -16.950391 28.301328 -15.894531 27.941406 C-14.533909 27.48161 -13.173228 27.021983 -11.8125 26.5625 C-10.802197 26.217354 -10.802197 26.217354 -9.771484 25.865234 C-3.591417 23.785114 1.477442 22.872107 8 23 C8 20.03 8 17.06 8 14 C5.36 14 2.72 14 0 14 C0 9.38 0 4.76 0 0 Z M-36 62 C-49.745394 77.629175 -56.176538 95.74729 -55.375 116.398438 C-54.055278 136.285004 -43.725201 154.670782 -28.9375 167.6875 C-11.886745 180.951844 7.683699 185.050388 29 183 C47.94146 179.879262 64.360938 169.14357 76 154 C87.335858 137.587992 91.789603 117.473033 88.34375 97.789062 C84.380022 78.761799 73.548503 62.576999 57.667969 51.351562 C27.733192 32.297763 -11.358052 36.517986 -36 62 Z " fill="#6E99AB" transform="translate(92,9)"/>
<path d="M0 0 C1.32 0 2.64 0 4 0 C4 9.9 4 19.8 4 30 C6.475 30.99 6.475 30.99 9 32 C10.875 33.5625 10.875 33.5625 12 36 C12.195706 40.250733 11.743959 43.791066 9.5 47.4375 C6.934282 49.041074 5.816937 49.197198 2.910156 49.554688 C-3.403658 50.892769 -6.820639 55.086966 -11.0625 59.6875 C-20.162338 69.271621 -20.162338 69.271621 -24.308594 73.082031 C-25.231764 73.930516 -25.231764 73.930516 -26.173584 74.796143 C-28 76 -28 76 -32 76 C-32 73 -32 73 -30.259277 70.902832 C-29.059724 69.717297 -29.059724 69.717297 -27.835938 68.507812 C-26.960664 67.637695 -26.085391 66.767578 -25.183594 65.871094 C-24.256758 64.964883 -23.329922 64.058672 -22.375 63.125 C-21.471367 62.226523 -20.567734 61.328047 -19.636719 60.402344 C-15.241751 56.058704 -10.840567 51.843506 -6 48 C-6.33 47.319375 -6.66 46.63875 -7 45.9375 C-8.219564 42.355032 -8.403451 39.765543 -8 36 C-5.553739 31.981143 -4.656216 31.164054 0 30 C0 20.1 0 10.2 0 0 Z " fill="#C73A41" transform="translate(107,81)"/>
<path d="M0 0 C0.70125 0.268125 1.4025 0.53625 2.125 0.8125 C-5.367117 10.017101 -14.823362 21.399042 -24.875 27.8125 C-26.195 27.8125 -27.515 27.8125 -28.875 27.8125 C-28.875 24.8125 -28.875 24.8125 -27.134277 22.715332 C-26.334575 21.924976 -25.534873 21.134619 -24.710938 20.320312 C-23.835664 19.450195 -22.960391 18.580078 -22.058594 17.683594 C-21.131758 16.777383 -20.204922 15.871172 -19.25 14.9375 C-18.346367 14.039023 -17.442734 13.140547 -16.511719 12.214844 C-3.895479 -0.254053 -3.895479 -0.254053 0 0 Z " fill="#3B5E7C" transform="translate(103.875,129.1875)"/>
<path d="M0 0 C1.32 0 2.64 0 4 0 C4 9.9 4 19.8 4 30 C2.68 30 1.36 30 0 30 C0 20.1 0 10.2 0 0 Z " fill="#2A5174" transform="translate(107,81)"/>
<path d="M0 0 C2.9375 0.75 2.9375 0.75 4.9375 2.75 C4.482955 8.204545 4.482955 8.204545 1.9375 10.75 C-1.0625 11 -1.0625 11 -4.0625 10.75 C-6.0625 8.75 -6.0625 8.75 -6.375 5.25 C-6.271875 4.095 -6.16875 2.94 -6.0625 1.75 C-3.0625 -0.25 -3.0625 -0.25 0 0 Z " fill="#FCEAEA" transform="translate(110.0625,115.25)"/>
<path d="M0 0 C3.63 0 7.26 0 11 0 C11 1.65 11 3.3 11 5 C7.37 5 3.74 5 0 5 C0 3.35 0 1.7 0 0 Z " fill="#4B6C88" transform="translate(45,118)"/>
<path d="M0 0 C3.3 0 6.6 0 10 0 C10 1.65 10 3.3 10 5 C6.7 5 3.4 5 0 5 C0 3.35 0 1.7 0 0 Z " fill="#41627E" transform="translate(163,118)"/>
<path d="M0 0 C0.66 0 1.32 0 2 0 C3.65 2.97 5.3 5.94 7 9 C5.02 9.99 5.02 9.99 3 11 C1.35 8.69 -0.3 6.38 -2 4 C-1.34 2.68 -0.68 1.36 0 0 Z " fill="#3E5F7C" transform="translate(76,65)"/>
<path d="M0 0 C0.66 1.32 1.32 2.64 2 4 C-0.97 5.65 -3.94 7.3 -7 9 C-7.66 7.68 -8.32 6.36 -9 5 C-7.879261 4.160944 -6.753255 3.328922 -5.625 2.5 C-4.998516 2.035937 -4.372031 1.571875 -3.726562 1.09375 C-2 0 -2 0 0 0 Z " fill="#3D607C" transform="translate(63,147)"/>
<path d="M0 0 C0.33 1.32 0.66 2.64 1 4 C-0.120739 4.839056 -1.246745 5.671078 -2.375 6.5 C-3.001484 6.964062 -3.627969 7.428125 -4.273438 7.90625 C-6 9 -6 9 -8 9 C-8.33 7.68 -8.66 6.36 -9 5 C-7.879261 4.160944 -6.753255 3.328922 -5.625 2.5 C-4.998516 2.035938 -4.372031 1.571875 -3.726562 1.09375 C-2 0 -2 0 0 0 Z " fill="#3B5F7C" transform="translate(163,85)"/>
<path d="M0 0 C1.32 0.33 2.64 0.66 4 1 C3.469309 4.820972 2.502984 7.061714 0 10 C-1.32 9.67 -2.64 9.34 -4 9 C-2.801003 5.916865 -1.522995 2.937205 0 0 Z " fill="#3A5D7A" transform="translate(79,166)"/>
<path d="M0 0 C0.66 0 1.32 0 2 0 C4.994819 4.580311 4.994819 4.580311 6 7 C5.25 9.4375 5.25 9.4375 4 11 C3.34 11 2.68 11 2 11 C-0.994819 6.419689 -0.994819 6.419689 -2 4 C-1.25 1.5625 -1.25 1.5625 0 0 Z " fill="#3D607D" transform="translate(138,165)"/>
<path d="M0 0 C3.958209 0.565458 6.665905 1.809023 10 4 C9.34 5.32 8.68 6.64 8 8 C3.545 6.02 3.545 6.02 -1 4 C-0.67 2.68 -0.34 1.36 0 0 Z " fill="#3C5C76" transform="translate(157,144)"/>
<path d="M0 0 C3.343735 0.557289 6.03313 1.351739 9 3 C8.67 4.65 8.34 6.3 8 8 C4.916865 6.801003 1.937205 5.522995 -1 4 C-0.67 2.68 -0.34 1.36 0 0 Z " fill="#3E5D78" transform="translate(53,90)"/>
<path d="M0 0 C1.32 0.33 2.64 0.66 4 1 C3.354556 4.485399 1.898656 7.028191 0 10 C-1.32 9.67 -2.64 9.34 -4 9 C-2.941249 5.596873 -1.990978 2.986468 0 0 Z " fill="#3D5E7C" transform="translate(139,65)"/>
<path d="M0 0 C1.32 0 2.64 0 4 0 C4 3.3 4 6.6 4 10 C2.68 10 1.36 10 0 10 C0 6.7 0 3.4 0 0 Z " fill="#325574" transform="translate(107,174)"/>
<path d="M0 0 C1.32 0 2.64 0 4 0 C4 3.3 4 6.6 4 10 C2.68 10 1.36 10 0 10 C0 6.7 0 3.4 0 0 Z " fill="#2B5173" transform="translate(107,57)"/>
</svg>
