<?xml version="1.0" encoding="UTF-8"?>
<!-- Generator: visioncortex VTracer 0.6.4 -->
<svg version="1.1" xmlns="http://www.w3.org/2000/svg" width="220" height="220">
<path d="M0 0 C9.826143 5.650032 13.158611 18.765736 16 29 C18.66284 39.215206 19.922028 49.524646 21 60 C22.98 60 24.96 60 27 60 C26.975347 59.419519 26.950693 58.839038 26.925293 58.240967 C26.76043 51.206566 27.712692 44.691297 29.125 37.8125 C29.461687 36.167012 29.461687 36.167012 29.805176 34.488281 C32.587536 21.515409 36.301984 6.798677 48 -1 C54.062291 -0.75674 58.499578 0.807343 63.8125 3.625 C64.508271 3.986904 65.204043 4.348809 65.920898 4.72168 C67.958252 5.795407 69.981025 6.892171 72 8 C73.514004 8.823711 73.514004 8.823711 75.058594 9.664062 C84.883832 15.453681 97.373806 25.754723 101 37 C98.060619 44.506322 90.186042 48.296344 83.375 51.75 C82.637656 52.13543 81.900313 52.520859 81.140625 52.917969 C77.490087 54.80866 73.859641 56.565983 70 58 C71.307109 57.965195 71.307109 57.965195 72.640625 57.929688 C92.444444 57.62963 92.444444 57.62963 99 62 C99 62.66 99 63.32 99 64 C97.25 65.289062 97.25 65.289062 95 66.625 C93.88625 67.294023 93.88625 67.294023 92.75 67.976562 C92.1725 68.314297 91.595 68.652031 91 69 C93.954408 71.954408 97.51984 71.944889 101.5 72.5625 C109.774457 73.887228 109.774457 73.887228 112 75 C112 84.24 112 93.48 112 103 C109.525 103.495 109.525 103.495 107 104 C107.011103 104.832719 107.022206 105.665439 107.033646 106.523392 C107.133777 114.366072 107.209929 122.208537 107.259061 130.051709 C107.28517 134.084148 107.320589 138.116059 107.377197 142.148193 C107.431474 146.038573 107.461411 149.928445 107.474386 153.819174 C107.483634 155.304425 107.501693 156.789648 107.52865 158.274683 C107.564888 160.353413 107.569948 162.430039 107.567627 164.509033 C107.57873 165.692619 107.589833 166.876205 107.601273 168.095657 C107 171 107 171 104.642929 172.835175 C101.775177 174.099087 98.923013 175.203366 95.953125 176.207031 C94.73488 176.622271 93.516636 177.03751 92.261475 177.465332 C90.924384 177.914589 89.587224 178.363639 88.25 178.8125 C86.856029 179.284484 85.462234 179.756991 84.068604 180.22998 C81.82681 180.990622 79.584819 181.750644 77.342056 182.508423 C71.222084 184.577705 65.11583 186.685232 59.011719 188.800781 C56.233008 189.76076 53.454035 190.719974 50.674927 191.678802 C48.858247 192.306742 47.04224 192.936628 45.226929 193.568512 C42.6624 194.460446 40.095225 195.344337 37.527344 196.226562 C36.768141 196.492739 36.008939 196.758915 35.22673 197.033157 C26.109151 200.144932 20.282074 199.917486 11.214844 196.765625 C10.1639 196.412966 9.112957 196.060306 8.030167 195.69696 C4.661036 194.56193 1.299516 193.405912 -2.0625 192.25 C-4.23329 191.518244 -6.404512 190.787764 -8.576172 190.058594 C-25.501626 184.324726 -42.212218 178.15552 -59 172 C-59.33 149.89 -59.66 127.78 -60 105 C-61.65 104.34 -63.3 103.68 -65 103 C-65.024659 99.03069 -65.04284 95.06141 -65.054932 91.092041 C-65.059971 89.740796 -65.066802 88.389557 -65.075439 87.03833 C-65.087524 85.099796 -65.092698 83.161222 -65.097656 81.222656 C-65.102893 80.054846 -65.10813 78.887036 -65.113525 77.683838 C-65 75 -65 75 -64 74 C-62.663699 73.705692 -61.315808 73.463382 -59.964844 73.246094 C-59.155957 73.113965 -58.34707 72.981836 -57.513672 72.845703 C-56.238467 72.643643 -56.238467 72.643643 -54.9375 72.4375 C-54.083496 72.298926 -53.229492 72.160352 -52.349609 72.017578 C-50.233655 71.67477 -48.116899 71.336924 -46 71 C-46 70.34 -46 69.68 -46 69 C-48.31 67.68 -50.62 66.36 -53 65 C-53 64.01 -53 63.02 -53 62 C-42.440353 58.6299 -31.954244 58.879033 -21 59 C-22.523672 58.38125 -22.523672 58.38125 -24.078125 57.75 C-35.356299 53.061645 -45.416067 47.939664 -54 39 C-50.143744 25.562738 -38.526476 15.245179 -26.734375 8.484375 C-7.013338 -2.337779 -7.013338 -2.337779 0 0 Z " fill="#E33630" transform="translate(86,10)"/>
<path d="M0 0 C0.766957 0.288549 1.533914 0.577097 2.324112 0.87439 C4.752854 1.790951 7.175174 2.723285 9.597656 3.65625 C11.251553 4.283607 12.905847 4.90992 14.560547 5.535156 C18.598436 7.063482 22.630646 8.605975 26.660156 10.15625 C26.684852 14.249665 26.703014 18.343051 26.715088 22.436523 C26.720121 23.829435 26.726947 25.222341 26.735596 26.615234 C26.747708 28.615862 26.75286 30.616529 26.757812 32.617188 C26.763049 33.821655 26.768286 35.026123 26.773682 36.26709 C26.660156 39.15625 26.660156 39.15625 25.660156 41.15625 C25.539206 43.371617 25.482665 45.59059 25.454834 47.809082 C25.444934 48.492124 25.435035 49.175166 25.424835 49.878906 C25.393203 52.14059 25.368456 54.402294 25.34375 56.664062 C25.323182 58.230627 25.302186 59.797186 25.280777 61.363739 C25.225541 65.490087 25.176138 69.616485 25.12793 73.74292 C25.077726 77.952357 25.022034 82.161721 24.966797 86.371094 C24.859197 94.632751 24.757756 102.894469 24.660156 111.15625 C26.970156 111.15625 29.280156 111.15625 31.660156 111.15625 C28.196372 113.465439 24.645011 114.681892 20.738281 116.011719 C19.96007 116.277613 19.181859 116.543507 18.380066 116.817459 C16.733423 117.377237 15.085875 117.934359 13.4375 118.489014 C10.9286 119.337512 8.427427 120.206559 5.925781 121.076172 C4.322051 121.618479 2.717897 122.159536 1.113281 122.699219 C0.371365 122.960591 -0.370551 123.221964 -1.134949 123.491257 C-8.996494 126.078845 -15.320766 124.028891 -22.898438 121.433594 C-23.68759 121.168656 -24.476743 120.903719 -25.28981 120.630753 C-27.787605 119.790745 -30.282472 118.942397 -32.777344 118.09375 C-34.479631 117.519627 -36.182103 116.946054 -37.884766 116.373047 C-42.038631 114.973796 -46.189892 113.567062 -50.339844 112.15625 C-48.359844 111.66125 -48.359844 111.66125 -46.339844 111.15625 C-46.669844 87.72625 -46.999844 64.29625 -47.339844 40.15625 C-47.999844 39.82625 -48.659844 39.49625 -49.339844 39.15625 C-49.339844 30.24625 -49.339844 21.33625 -49.339844 12.15625 C-48.349844 11.82625 -47.359844 11.49625 -46.339844 11.15625 C-46.009844 10.16625 -45.679844 9.17625 -45.339844 8.15625 C-42.583496 6.805908 -42.583496 6.805908 -38.925781 5.457031 C-38.277917 5.21712 -37.630052 4.977208 -36.962555 4.730026 C-35.587635 4.224388 -34.21055 3.724607 -32.831543 3.230225 C-30.737828 2.477018 -28.654122 1.700054 -26.570312 0.919922 C-25.231004 0.430824 -23.891175 -0.056851 -22.550781 -0.542969 C-21.336968 -0.984714 -20.123154 -1.42646 -18.872559 -1.881592 C-11.758811 -3.819068 -6.632673 -2.585582 0 0 Z " fill="#CE6D25" transform="translate(119.33984375,84.84375)"/>
<path d="M0 0 C1.165071 0.177568 2.330142 0.355137 3.530518 0.538086 C7.229557 1.103158 10.927266 1.676454 14.625 2.25 C17.141844 2.635961 19.65877 3.021384 22.175781 3.40625 C28.326492 4.34793 34.476134 5.296355 40.625 6.25 C39.635 4.93 38.645 3.61 37.625 2.25 C37.955 1.59 38.285 0.93 38.625 0.25 C41.417364 0.72536 44.20885 1.205107 47 1.6875 C47.794062 1.822207 48.588125 1.956914 49.40625 2.095703 C55.398438 3.136719 55.398438 3.136719 57.625 4.25 C57.625 13.49 57.625 22.73 57.625 32.25 C55.975 32.58 54.325 32.91 52.625 33.25 C52.636103 34.082719 52.647206 34.915439 52.658646 35.773392 C52.758777 43.616072 52.834929 51.458537 52.884061 59.301709 C52.91017 63.334148 52.945589 67.366059 53.002197 71.398193 C53.056474 75.288573 53.086411 79.178445 53.099386 83.069174 C53.108634 84.554425 53.126693 86.039648 53.15365 87.524683 C53.189888 89.603413 53.194948 91.680039 53.192627 93.759033 C53.20373 94.942619 53.214833 96.126205 53.226273 97.345657 C52.625 100.25 52.625 100.25 50.253983 102.087509 C45.585324 104.151909 40.821522 105.829176 36 107.5 C34.426055 108.064609 34.426055 108.064609 32.820312 108.640625 C31.814844 108.99125 30.809375 109.341875 29.773438 109.703125 C28.857397 110.024424 27.941357 110.345723 26.997559 110.676758 C24.625 111.25 24.625 111.25 21.625 110.25 C21.955 109.59 22.285 108.93 22.625 108.25 C22.740542 106.131685 22.791984 104.009773 22.814453 101.888428 C22.822746 101.236253 22.83104 100.584078 22.839584 99.91214 C22.85699 98.495111 22.872155 97.078053 22.885361 95.660978 C22.906363 93.421537 22.933386 91.182242 22.962036 88.942886 C23.031921 83.382245 23.091343 77.8215 23.151062 72.260742 C23.201914 67.561497 23.256709 62.86233 23.316879 58.163195 C23.343538 55.951222 23.364299 53.739243 23.384888 51.527206 C23.401483 50.17886 23.418355 48.830517 23.435547 47.482178 C23.448075 46.300183 23.460603 45.118188 23.473511 43.900375 C23.625 41.25 23.625 41.25 24.625 40.25 C24.783588 38.106133 24.876293 35.957332 24.941406 33.808594 C25.004248 31.85083 25.004248 31.85083 25.068359 29.853516 C25.108176 28.464847 25.147888 27.076175 25.1875 25.6875 C25.23068 24.294908 25.274294 22.90233 25.318359 21.509766 C25.424859 18.089952 25.526869 14.670062 25.625 11.25 C24.21541 10.938691 24.21541 10.938691 22.777344 10.621094 C7.382135 7.213429 -7.995765 3.728881 -23.375 0.25 C-16.834417 -4.110389 -7.354508 -1.151113 0 0 Z " fill="#CF702A" transform="translate(140.375,80.75)"/>
<path d="M0 0 C0.766957 0.288549 1.533914 0.577097 2.324112 0.87439 C4.752854 1.790951 7.175174 2.723285 9.597656 3.65625 C11.251553 4.283607 12.905847 4.90992 14.560547 5.535156 C18.598436 7.063482 22.630646 8.605975 26.660156 10.15625 C26.660156 10.81625 26.660156 11.47625 26.660156 12.15625 C25.502296 12.375592 25.502296 12.375592 24.321045 12.599365 C20.829507 13.262029 17.338579 13.927852 13.847656 14.59375 C12.632715 14.823848 11.417773 15.053945 10.166016 15.291016 C9.002637 15.513379 7.839258 15.735742 6.640625 15.964844 C5.567078 16.16908 4.49353 16.373315 3.387451 16.58374 C0.584974 17.117653 0.584974 17.117653 -2.339844 18.15625 C-11.984485 19.172304 -21.19789 16.75994 -30.527344 14.65625 C-32.066827 14.317963 -33.60654 13.980715 -35.146484 13.644531 C-38.880349 12.827058 -42.610843 11.995618 -46.339844 11.15625 C-46.009844 10.16625 -45.679844 9.17625 -45.339844 8.15625 C-42.583496 6.805908 -42.583496 6.805908 -38.925781 5.457031 C-38.277917 5.21712 -37.630052 4.977208 -36.962555 4.730026 C-35.587635 4.224388 -34.21055 3.724607 -32.831543 3.230225 C-30.737828 2.477018 -28.654122 1.700054 -26.570312 0.919922 C-25.231004 0.430824 -23.891175 -0.056851 -22.550781 -0.542969 C-21.336968 -0.984714 -20.123154 -1.42646 -18.872559 -1.881592 C-11.758811 -3.819068 -6.632673 -2.585582 0 0 Z " fill="#FABA86" transform="translate(119.33984375,84.84375)"/>
<path d="M0 0 C1.165071 0.177568 2.330142 0.355137 3.530518 0.538086 C7.229557 1.103158 10.927266 1.676454 14.625 2.25 C17.141844 2.635961 19.65877 3.021384 22.175781 3.40625 C28.326492 4.34793 34.476134 5.296355 40.625 6.25 C39.635 4.93 38.645 3.61 37.625 2.25 C37.955 1.59 38.285 0.93 38.625 0.25 C41.417364 0.72536 44.20885 1.205107 47 1.6875 C47.794062 1.822207 48.588125 1.956914 49.40625 2.095703 C55.398438 3.136719 55.398438 3.136719 57.625 4.25 C57.625 13.49 57.625 22.73 57.625 32.25 C56.305 32.58 54.985 32.91 53.625 33.25 C54.10719 32.18326 54.10719 32.18326 54.599121 31.094971 C55.663746 28.14255 55.934326 25.855098 56.039062 22.730469 C56.077734 21.708887 56.116406 20.687305 56.15625 19.634766 C56.187187 18.579668 56.218125 17.52457 56.25 16.4375 C56.288672 15.363066 56.327344 14.288633 56.367188 13.181641 C56.461186 10.537929 56.546846 7.89422 56.625 5.25 C55.966047 5.401465 55.307095 5.55293 54.628174 5.708984 C51.567694 6.403758 48.502817 7.076904 45.4375 7.75 C44.401738 7.988477 43.365977 8.226953 42.298828 8.472656 C29.136312 11.325214 18.144731 10.364719 5.1875 6.9375 C2.751767 6.314587 0.315569 5.693488 -2.121094 5.074219 C-3.305581 4.770483 -4.490068 4.466748 -5.710449 4.153809 C-11.568362 2.709039 -17.466321 1.469969 -23.375 0.25 C-16.834417 -4.110389 -7.354508 -1.151113 0 0 Z " fill="#FCB185" transform="translate(140.375,80.75)"/>
<path d="M0 0 C0 3 0 3 -1.082031 5.203125 C-3 7 -3 7 -6.136719 7.171875 C-9.424479 6.78125 -12.71224 6.390625 -16 6 C-16.33 14.25 -16.66 22.5 -17 31 C-15.35 31.33 -13.7 31.66 -12 32 C-11.67 54.77 -11.34 77.54 -11 101 C-11.66 101 -12.32 101 -13 101 C-13.33 78.89 -13.66 56.78 -14 34 C-15.65 33.34 -17.3 32.68 -19 32 C-19.024659 28.03069 -19.04284 24.06141 -19.054932 20.092041 C-19.059971 18.740796 -19.066802 17.389557 -19.075439 16.03833 C-19.087524 14.099796 -19.092698 12.161222 -19.097656 10.222656 C-19.102893 9.054846 -19.10813 7.887036 -19.113525 6.683838 C-19 4 -19 4 -18 3 C-16.663699 2.705692 -15.315808 2.463382 -13.964844 2.246094 C-13.155957 2.113965 -12.34707 1.981836 -11.513672 1.845703 C-10.663535 1.710996 -9.813398 1.576289 -8.9375 1.4375 C-8.083496 1.298926 -7.229492 1.160352 -6.349609 1.017578 C-4.233655 0.67477 -2.116899 0.336924 0 0 Z " fill="#D39E77" transform="translate(40,81)"/>
<path d="M0 0 C1.85625 0.030937 1.85625 0.030937 3.75 0.0625 C3.75 0.3925 3.75 0.7225 3.75 1.0625 C-4.362907 2.817307 -12.479382 4.554572 -20.598633 6.279785 C-23.806248 6.967376 -27.009028 7.67316 -30.210938 8.386719 C-31.932168 8.758384 -33.653514 9.129519 -35.375 9.5 C-36.135225 9.675635 -36.895449 9.85127 -37.678711 10.032227 C-43.256011 11.206005 -48.657339 11.329124 -54.25 10.0625 C-54.91 9.4025 -55.57 8.7425 -56.25 8.0625 C-49.959235 6.592754 -43.709929 5.448437 -37.3125 4.5625 C-36.410237 4.435044 -35.507974 4.307588 -34.578369 4.17627 C-27.711143 3.222972 -20.833353 2.408986 -13.935791 1.708984 C-9.220936 1.221298 -4.735296 -0.078922 0 0 Z " fill="#FCA583" transform="translate(94.25,79.9375)"/>
<path d="M0 0 C2.959015 0.475236 5.917169 0.955001 8.875 1.4375 C10.137637 1.639561 10.137637 1.639561 11.425781 1.845703 C12.634277 2.043896 12.634277 2.043896 13.867188 2.246094 C14.610815 2.366541 15.354443 2.486987 16.120605 2.611084 C18 3 18 3 20 4 C20 13.24 20 22.48 20 32 C18.02 32.495 18.02 32.495 16 33 C16.32146 32.28884 16.64292 31.577681 16.974121 30.844971 C18.038746 27.89255 18.309326 25.605098 18.414062 22.480469 C18.452734 21.458887 18.491406 20.437305 18.53125 19.384766 C18.562187 18.329668 18.593125 17.27457 18.625 16.1875 C18.663672 15.113066 18.702344 14.038633 18.742188 12.931641 C18.836186 10.287929 18.921846 7.64422 19 5 C18.394785 5.160085 17.78957 5.320171 17.166016 5.485107 C12.842528 6.512862 8.401047 6.500878 4 6 C1.3125 4.125 1.3125 4.125 0 2 C0 1.34 0 0.68 0 0 Z " fill="#F4C29E" transform="translate(178,81)"/>
<path d="M0 0 C0 3 0 3 -0.9375 5.25 C-3 7 -3 7 -4.992188 7.066406 C-7.356758 6.807657 -9.661684 6.436337 -12 6 C-14.97 5.505 -14.97 5.505 -18 5 C-18 13.91 -18 22.82 -18 32 C-18.33 32 -18.66 32 -19 32 C-19.024659 28.03069 -19.04284 24.06141 -19.054932 20.092041 C-19.059971 18.740796 -19.066802 17.389557 -19.075439 16.03833 C-19.087524 14.099796 -19.092698 12.161222 -19.097656 10.222656 C-19.102893 9.054846 -19.10813 7.887036 -19.113525 6.683838 C-19 4 -19 4 -18 3 C-16.663699 2.705692 -15.315808 2.463382 -13.964844 2.246094 C-13.155957 2.113965 -12.34707 1.981836 -11.513672 1.845703 C-10.663535 1.710996 -9.813398 1.576289 -8.9375 1.4375 C-8.083496 1.298926 -7.229492 1.160352 -6.349609 1.017578 C-4.233655 0.67477 -2.116899 0.336924 0 0 Z " fill="#F7C4A1" transform="translate(40,81)"/>
<path d="M0 0 C2.31 0 4.62 0 7 0 C7 9.24 7 18.48 7 28 C5.68 28.33 4.36 28.66 3 29 C3.32146 28.28884 3.64292 27.577681 3.974121 26.844971 C5.038746 23.89255 5.309326 21.605098 5.414062 18.480469 C5.47207 16.948096 5.47207 16.948096 5.53125 15.384766 C5.577656 13.802119 5.577656 13.802119 5.625 12.1875 C5.683008 10.57585 5.683008 10.57585 5.742188 8.931641 C5.836186 6.287929 5.921846 3.64422 6 1 C3.69 1.33 1.38 1.66 -1 2 C-0.67 1.34 -0.34 0.68 0 0 Z " fill="#EEAB78" transform="translate(191,85)"/>
</svg>
