<?xml version="1.0" encoding="UTF-8"?>
<!-- Generator: visioncortex VTracer 0.6.4 -->
<svg version="1.1" xmlns="http://www.w3.org/2000/svg" width="220" height="220">
<path d="M0 0 C3.497542 3.70328 5.886291 8.117747 6.125 13.25 C5.309685 16.32431 4.268836 19.283782 3.125 22.25 C4.130469 22.362148 5.135938 22.474297 6.171875 22.589844 C20.312292 24.632743 32.608015 32.961368 42.125 43.25 C42.49625 41.610312 42.49625 41.610312 42.875 39.9375 C44.125 36.25 44.125 36.25 45.8125 34.3125 C49.143553 32.782016 51.499884 32.80481 55.125 33.25 C58.987141 35.61995 61.024828 38.270726 63.125 42.25 C63.785 40.6 64.445 38.95 65.125 37.25 C66.445 37.91 67.765 38.57 69.125 39.25 C69.243493 42.153068 69.253771 43.629822 68.125 46.25 C65.046498 48.981954 61.592291 51.048297 58.125 53.25 C56.059154 54.854973 54.100851 56.534129 52.125 58.25 C52.341563 59.232266 52.341563 59.232266 52.5625 60.234375 C55.785317 76.079894 54.132558 89.990644 46.234375 104.234375 C44.040881 107.37026 41.782033 109.301575 38.8125 111.6875 C32.6493 117.281071 32.800594 123.898783 32.414795 131.759521 C32.347336 133.559827 32.295104 135.360819 32.263428 137.162109 C32.125 139.25 32.125 139.25 31.125 141.25 C27.506324 142.456225 24.199937 142.358169 20.4375 142.3125 C19.735605 142.307988 19.033711 142.303477 18.310547 142.298828 C16.581995 142.287069 14.853486 142.269135 13.125 142.25 C12.135 138.785 12.135 138.785 11.125 135.25 C10.444375 136.24 10.444375 136.24 9.75 137.25 C6.228747 139.932859 3.680258 139.64993 -0.632812 139.585938 C-2.875 139.25 -2.875 139.25 -4.875 137.25 C-5 134.625 -5 134.625 -4.875 132.25 C-6.1125 132.415 -7.35 132.58 -8.625 132.75 C-17.332818 133.646022 -26.132655 133.332715 -34.875 133.25 C-35.535 135.56 -36.195 137.87 -36.875 140.25 C-42.541426 141.475173 -48.112085 141.342289 -53.875 141.25 C-54.865 138.28 -55.855 135.31 -56.875 132.25 C-57.535 132.58 -58.195 132.91 -58.875 133.25 C-60.538456 133.370825 -62.207206 133.425379 -63.875 133.4375 C-64.761875 133.45168 -65.64875 133.465859 -66.5625 133.480469 C-68.875 133.25 -68.875 133.25 -70.875 131.25 C-71.113281 129.042969 -71.113281 129.042969 -71.1875 126.4375 C-71.501152 122.67368 -71.671042 121.512232 -74.0625 118.4375 C-74.990625 117.715625 -75.91875 116.99375 -76.875 116.25 C-80.708873 113.249578 -83.38514 110.624673 -86.1875 106.625 C-89.339907 102.379758 -91.83917 101.209829 -96.855469 99.902344 C-100.122669 98.846981 -101.28865 97.224407 -102.875 94.25 C-104.267601 89.815664 -104.359675 87.183447 -102.1875 83 C-99.875 80.25 -99.875 80.25 -97.8125 78.453125 C-95.405297 75.715902 -95.136406 73.824864 -94.5625 70.25 C-92.509836 60.321353 -87.204657 51.297747 -79.875 44.25 C-78.451875 43.321875 -78.451875 43.321875 -77 42.375 C-74.545522 39.920522 -74.499143 39.283714 -74.375 35.9375 C-74.537 32.760206 -75.102747 30.318082 -76.4375 27.4375 C-77.875 24.25 -77.875 24.25 -77.75 21.875 C-76.875 20.25 -76.875 20.25 -73.875 19.25 C-67.155529 18.427208 -62.502087 20.90391 -56.875 24.25 C-56.279453 24.846836 -55.683906 25.443672 -55.070312 26.058594 C-52.72712 27.635562 -52.72712 27.635562 -49.160156 26.484375 C-47.745934 26.008984 -46.338386 25.51336 -44.9375 25 C-43.533293 24.513483 -42.128359 24.029056 -40.722656 23.546875 C-40.057903 23.316697 -39.393149 23.086519 -38.708252 22.849365 C-34.036378 21.321938 -29.774498 21.153931 -24.875 21.25 C-25.225625 20.425 -25.57625 19.6 -25.9375 18.75 C-27.438923 13.144688 -26.873047 9.103516 -24.125 4 C-21.319109 0.570578 -18.799661 -2.001521 -14.625 -3.625 C-9.290804 -3.867463 -4.561822 -2.776761 0 0 Z M50.125 38.25 C49.795 38.58 49.465 38.91 49.125 39.25 C49.412301 41.589447 49.744368 43.923914 50.125 46.25 C51.775 46.58 53.425 46.91 55.125 47.25 C55.125 44.94 55.125 42.63 55.125 40.25 C52.65 39.26 52.65 39.26 50.125 38.25 Z M48.125 51.25 C48.455 51.91 48.785 52.57 49.125 53.25 C49.455 52.59 49.785 51.93 50.125 51.25 C49.465 51.25 48.805 51.25 48.125 51.25 Z " fill="#F0A08E" transform="translate(124.875,66.75)"/>
<path d="M0 0 C3.539046 3.747225 5.746706 8.07998 6.125 13.25 C5.3125 17 5.3125 17 4.125 20.25 C3.465 20.58 2.805 20.91 2.125 21.25 C2.125 22.57 2.125 23.89 2.125 25.25 C3.445 25.91 4.765 26.57 6.125 27.25 C5.795 28.57 5.465 29.89 5.125 31.25 C3.761816 31.004434 3.761816 31.004434 2.371094 30.753906 C-3.003801 29.986064 -8.395215 30.143785 -13.8125 30.1875 C-14.87791 30.192012 -15.94332 30.196523 -17.041016 30.201172 C-19.652403 30.212882 -22.263671 30.229283 -24.875 30.25 C-24.125 25.5 -24.125 25.5 -21.875 23.25 C-22.37 22.5075 -22.865 21.765 -23.375 21 C-25.815454 16.07216 -25.672095 10.588339 -24.875 5.25 C-22.769695 1.039391 -19.197881 -1.93016 -14.75 -3.5 C-9.377413 -3.967181 -4.595628 -2.797339 0 0 Z " fill="#DEA43D" transform="translate(124.875,66.75)"/>
<path d="M0 0 C4.767915 1.706802 8.509066 4.592962 11 9 C12.21055 13.908989 12.284797 17.914212 11 22.8125 C8.007876 27.581198 4.31767 30.227443 -1 32 C-6.83563 32.561118 -10.445396 31.503542 -15 28 C-19.355181 23.300989 -20.362391 19.529082 -20.28125 13.28125 C-19.691806 8.500205 -16.851792 5.750388 -13.375 2.6875 C-8.947712 -0.458204 -5.336983 -0.629939 0 0 Z " fill="#F7C351" transform="translate(100,29)"/>
<path d="M0 0 C4.161534 4.355094 5.6875 7.768369 5.6875 13.8125 C4.698023 19.351422 1.658348 23.256568 -2.6875 26.6875 C-7.48379 28.743053 -10.909986 29.247763 -15.9375 27.6875 C-21.902738 24.373479 -25.094063 20.739998 -26.996094 14.21875 C-27.561599 9.918119 -26.43259 6.538938 -24.3125 2.8125 C-17.55485 -5.528023 -8.301145 -5.481888 0 0 Z " fill="#DEAA43" transform="translate(141.3125,11.1875)"/>
<path d="M0 0 C3 1 3 1 4.75 3.9375 C6.592261 8.664994 6.190839 13.137408 5 18 C2.352828 22.870797 -1.870992 25.226418 -7 27 C-11.174644 27.417464 -14.542301 27.561259 -18 25 C-18.700099 23.683913 -19.370953 22.351489 -20 21 C-19.180156 20.769258 -18.360313 20.538516 -17.515625 20.300781 C-9.404068 18.073498 -9.404068 18.073498 -4 12 C-3.608125 11.38125 -3.21625 10.7625 -2.8125 10.125 C-1.67631 7.153427 -1.415125 4.143093 -1 1 C-0.67 0.67 -0.34 0.34 0 0 Z " fill="#C09645" transform="translate(106,34)"/>
<path d="M0 0 C1.225898 0.013535 1.225898 0.013535 2.476562 0.027344 C3.416289 0.044746 3.416289 0.044746 4.375 0.0625 C4.375 0.7225 4.375 1.3825 4.375 2.0625 C3.615742 2.316445 2.856484 2.570391 2.074219 2.832031 C0.583418 3.348301 0.583418 3.348301 -0.9375 3.875 C-1.923633 4.211445 -2.909766 4.547891 -3.925781 4.894531 C-6.539708 6.025594 -7.894893 6.839676 -9.625 9.0625 C-10.720065 12.347695 -10.724606 14.799134 -10.6875 18.25 C-10.678477 19.33668 -10.669453 20.423359 -10.660156 21.542969 C-10.648555 22.374414 -10.636953 23.205859 -10.625 24.0625 C-12.5625 23.75 -12.5625 23.75 -14.625 23.0625 C-15.981824 18.992027 -16.149723 15.318583 -15.625 11.0625 C-12.278744 4.493923 -7.496604 -0.107094 0 0 Z " fill="#E9A42B" transform="translate(95.625,28.9375)"/>
<path d="M0 0 C0 0.33 0 0.66 0 1 C-2.64 1.33 -5.28 1.66 -8 2 C-8 2.66 -8 3.32 -8 4 C-9.144688 4.680625 -9.144688 4.680625 -10.3125 5.375 C-14.189474 7.719217 -15.64953 9.598119 -16.75 14 C-16.981983 16.783795 -16.70199 18.367538 -16 21 C-16.4375 23.25 -16.4375 23.25 -17 25 C-15.68 25.33 -14.36 25.66 -13 26 C-13.33 26.66 -13.66 27.32 -14 28 C-17.098306 26.931619 -17.966346 26.05609 -19.6875 23.1875 C-22.084027 17.367364 -22.250796 14.071453 -20.074219 8.152344 C-17.743219 3.481868 -14.333533 1.523888 -9.5 -0.375 C-5.945755 -1.009687 -3.484781 -0.849947 0 0 Z " fill="#E9B75A" transform="translate(136,8)"/>
<path d="M0 0 C0 0.66 0 1.32 0 2 C1.32 2 2.64 2 4 2 C4 3.32 4 4.64 4 6 C1.525 5.01 1.525 5.01 -1 4 C0.255416 6.510831 1.500635 6.871254 4 8 C3.25 12.75 3.25 12.75 1 15 C0.01 15 -0.98 15 -2 15 C-1.845313 13.855312 -1.845313 13.855312 -1.6875 12.6875 C-1.790625 11.800625 -1.89375 10.91375 -2 10 C-4.408587 8.137556 -4.408587 8.137556 -7 7 C-6.61403 4.201716 -6.198634 3.179412 -4.0625 1.25 C-2 0 -2 0 0 0 Z M-7 9 C-6.01 9.495 -6.01 9.495 -5 10 C-5.99 10.495 -5.99 10.495 -7 11 C-7 10.34 -7 9.68 -7 9 Z " fill="#ECA320" transform="translate(97,37)"/>
<path d="M0 0 C0.66 0 1.32 0 2 0 C2 0.66 2 1.32 2 2 C2.78375 1.95875 3.5675 1.9175 4.375 1.875 C7 2 7 2 9 4 C8.67 5.32 8.34 6.64 8 8 C1.4 7.34 -5.2 6.68 -12 6 C-11.67 5.34 -11.34 4.68 -11 4 C-8.714844 3.585938 -8.714844 3.585938 -5.9375 3.375 C-5.018398 3.300234 -4.099297 3.225469 -3.152344 3.148438 C-2.44207 3.099453 -1.731797 3.050469 -1 3 C-0.67 2.01 -0.34 1.02 0 0 Z " fill="#D26A4E" transform="translate(122,90)"/>
<path d="M0 0 C1.225898 0.013535 1.225898 0.013535 2.476562 0.027344 C3.416289 0.044746 3.416289 0.044746 4.375 0.0625 C4.375 0.3925 4.375 0.7225 4.375 1.0625 C3.522285 1.174648 3.522285 1.174648 2.652344 1.289062 C-3.526182 2.341165 -7.386872 4.420741 -11.625 9.0625 C-13.067079 11.946659 -12.718949 14.479715 -12.6875 17.6875 C-12.673965 19.470273 -12.673965 19.470273 -12.660156 21.289062 C-12.648555 22.204297 -12.636953 23.119531 -12.625 24.0625 C-14.625 23.0625 -14.625 23.0625 -15.625 20.0625 C-16.167255 15.395555 -16.094846 11.98479 -13.9375 7.75 C-9.767991 2.904355 -6.445749 -0.092082 0 0 Z " fill="#ECC481" transform="translate(95.625,28.9375)"/>
<path d="M0 0 C1.371094 1.375 1.371094 1.375 3.308594 3.75 C2.648594 3.75 1.988594 3.75 1.308594 3.75 C0.648594 5.07 -0.011406 6.39 -0.691406 7.75 C-0.918281 7.13125 -1.145156 6.5125 -1.378906 5.875 C-3.070705 3.135898 -4.683848 2.699755 -7.691406 1.75 C-7.691406 1.09 -7.691406 0.43 -7.691406 -0.25 C-10.661406 -0.25 -13.631406 -0.25 -16.691406 -0.25 C-15.691406 -2.25 -15.691406 -2.25 -13.691406 -3 C-8.926095 -3.397109 -3.942616 -2.913712 0 0 Z " fill="#ECBB68" transform="translate(123.69140625,66.25)"/>
<path d="M0 0 C1.519531 1.207031 1.519531 1.207031 3 3 C3.074219 5.261719 3.074219 5.261719 2.6875 7.6875 C2.507676 8.899863 2.507676 8.899863 2.324219 10.136719 C2.217227 10.751602 2.110234 11.366484 2 12 C1.01 12 0.02 12 -1 12 C-2.588941 10.411059 -2.169984 8.751986 -2.1875 6.5625 C-2.20168 5.759414 -2.215859 4.956328 -2.230469 4.128906 C-2 2 -2 2 0 0 Z " fill="#542D1E" transform="translate(61,131)"/>
<path d="M0 0 C0.66 0 1.32 0 2 0 C3.183067 2.366135 3.133546 3.867807 3.125 6.5 C3.127578 7.294062 3.130156 8.088125 3.132812 8.90625 C3 11 3 11 2 13 C1.01 12.67 0.02 12.34 -1 12 C-1.026873 10.187579 -1.046337 8.375048 -1.0625 6.5625 C-1.074102 5.553164 -1.085703 4.543828 -1.097656 3.503906 C-1 1 -1 1 0 0 Z " fill="#502319" transform="translate(43,126)"/>
<path d="M0 0 C1.32 0.66 2.64 1.32 4 2 C-1.142857 8.571429 -1.142857 8.571429 -5 10 C-4.568024 5.24826 -3.672307 3.079999 0 0 Z " fill="#EAB04A" transform="translate(105,66)"/>
</svg>
